<svg xmlns="http://www.w3.org/2000/svg" xmlns:xlink="http://www.w3.org/1999/xlink" id="Layer_1" width="600" height="600" x="0" y="0" enable-background="new 0 0 600 600" version="1.1" viewBox="0 0 600 600" xml:space="preserve"><g><linearGradient id="SVGID_1_" x1="-4342.132" x2="1181.189" y1="300" y2="300" gradientUnits="userSpaceOnUse"><stop offset="0" style="stop-color:#0c4451"/><stop offset=".25" style="stop-color:#0a2028"/><stop offset=".301" style="stop-color:#0a2028"/><stop offset=".353" style="stop-color:#24363b"/><stop offset=".445" style="stop-color:#485b5d"/><stop offset=".537" style="stop-color:#698281"/><stop offset=".628" style="stop-color:#87a5a0"/><stop offset=".718" style="stop-color:#9fc1b9"/><stop offset=".807" style="stop-color:#afd5ca"/><stop offset=".892" style="stop-color:#b6e0d3"/></linearGradient><path fill="url(#SVGID_1_)" d="M600,300.005C600,465.69,465.687,600,299.998,600C134.313,600,0,465.69,0,300.005 C0,134.319,134.313,0,299.998,0C465.687,0,600,134.319,600,300.005z"/><g><linearGradient id="SVGID_2_" x1="171.135" x2="429.04" y1="225.018" y2="225.018" gradientUnits="userSpaceOnUse"><stop offset="0" style="stop-color:#1e965a"/><stop offset="1" style="stop-color:#153d23"/></linearGradient><path fill="url(#SVGID_2_)" d="M300.075,353.959c71.192,0,128.965-57.725,128.965-128.917c0-71.24-57.773-128.965-128.965-128.965 c-71.188,0-128.939,57.726-128.939,128.965C171.135,296.234,228.886,353.959,300.075,353.959z"/><linearGradient id="SVGID_3_" x1="65.201" x2="534.8" y1="466.282" y2="466.282" gradientUnits="userSpaceOnUse"><stop offset="0" style="stop-color:#1e965a"/><stop offset="1" style="stop-color:#153d23"/></linearGradient><path fill="url(#SVGID_3_)" d="M299.999,600c95.092,0,179.837-44.252,234.801-113.271 c-6.022-71.42-31.676-154.164-114.522-154.164c-10.479,0-54.446,46.66-120.251,46.66c-65.779,0-109.797-46.66-120.227-46.66 c-82.901,0-108.574,82.699-114.598,154.162C120.164,555.748,204.908,600,299.999,600z"/></g></g></svg>