<svg xmlns="http://www.w3.org/2000/svg" xmlns:xlink="http://www.w3.org/1999/xlink" id="Layer_1" width="600" height="600" x="0" y="0" enable-background="new 0 0 600 600" version="1.1" viewBox="0 0 600 600" xml:space="preserve"><g><linearGradient id="SVGID_1_" x1="-4342.132" x2="1181.189" y1="300" y2="300" gradientUnits="userSpaceOnUse"><stop offset="0" style="stop-color:#0c4451"/><stop offset=".25" style="stop-color:#0a2028"/><stop offset=".301" style="stop-color:#0a2028"/><stop offset=".353" style="stop-color:#24363b"/><stop offset=".445" style="stop-color:#485b5d"/><stop offset=".537" style="stop-color:#698281"/><stop offset=".628" style="stop-color:#87a5a0"/><stop offset=".718" style="stop-color:#9fc1b9"/><stop offset=".807" style="stop-color:#afd5ca"/><stop offset=".892" style="stop-color:#b6e0d3"/></linearGradient><path fill="url(#SVGID_1_)" d="M600,300.005C600,465.69,465.687,600,299.998,600C134.313,600,0,465.69,0,300.005 C0,134.319,134.313,0,299.998,0C465.687,0,600,134.319,600,300.005z"/><g><linearGradient id="SVGID_2_" x1="165.766" x2="422.603" y1="179.948" y2="179.948" gradientUnits="userSpaceOnUse"><stop offset="0" style="stop-color:#1e965a"/><stop offset="1" style="stop-color:#153d23"/></linearGradient><polygon fill="url(#SVGID_2_)" points="422.604 215.757 199.613 215.757 165.766 144.139 398.411 144.139"/><linearGradient id="SVGID_3_" x1="422.776" x2="176.198" y1="185.525" y2="416.249" gradientUnits="userSpaceOnUse"><stop offset="0" style="stop-color:#1e965a"/><stop offset="1" style="stop-color:#153d23"/></linearGradient><polygon fill="url(#SVGID_3_)" points="432.995 215.757 202.461 455.861 165.766 379.352 398.411 144.139"/><linearGradient id="SVGID_4_" x1="69.162" x2="527.49" y1="417.606" y2="417.606" gradientUnits="userSpaceOnUse"><stop offset="0" style="stop-color:#1e965a"/><stop offset="1" style="stop-color:#153d23"/></linearGradient><polygon fill="url(#SVGID_4_)" points="434.234 455.861 202.461 455.861 165.766 379.352 399.475 379.352"/></g></g></svg>